<svg width="104" height="84" viewBox="0 0 104 84" fill="none" xmlns="http://www.w3.org/2000/svg">
<path d="M102.502 83.0416C102.525 83.3167 102.766 83.5212 103.042 83.4983C103.317 83.4754 103.521 83.2337 103.498 82.9585L102.502 83.0416ZM0 82.5C0.358678 82.5 0.713168 82.4819 1.06354 82.4462L0.962148 81.4514C0.645629 81.4836 0.324981 81.5 0 81.5V82.5ZM3.1175 82.0243C3.77881 81.8179 4.42218 81.5471 5.04857 81.217L4.58228 80.3323C4.0064 80.6359 3.41925 80.8826 2.81966 81.0697L3.1175 82.0243ZM6.8119 80.1025C7.35477 79.701 7.8844 79.254 8.40175 78.7654L7.71514 78.0384C7.22406 78.5022 6.72499 78.923 6.21727 79.2985L6.8119 80.1025ZM9.81456 77.2966C10.252 76.7996 10.6811 76.2721 11.1025 75.7167L10.3058 75.1123C9.8977 75.6503 9.48389 76.1587 9.06387 76.636L9.81456 77.2966ZM12.2914 74.0474C12.6607 73.497 13.0243 72.9251 13.3828 72.3333L12.5274 71.8152C12.1763 72.3949 11.8209 72.9538 11.461 73.4902L12.2914 74.0474ZM14.3943 70.5877C14.7191 70.0029 15.04 69.4021 15.3572 68.7864L14.4683 68.3283C14.1555 68.9355 13.8395 69.5272 13.5201 70.1021L14.3943 70.5877ZM16.2531 66.9898C16.5428 66.3904 16.8297 65.7791 17.114 65.1568L16.2044 64.7412C15.9229 65.3574 15.6391 65.9622 15.3528 66.5547L16.2531 66.9898ZM17.936 63.3127C18.201 62.7038 18.464 62.086 18.7253 61.46L17.8024 61.0749C17.543 61.6965 17.2819 62.3097 17.0191 62.9136L17.936 63.3127ZM19.492 59.5882C19.7398 58.9724 19.9862 58.3499 20.2314 57.7213L19.2997 57.3579C19.0557 57.9834 18.8107 58.6027 18.5643 59.2149L19.492 59.5882ZM20.9576 55.8342C21.1936 55.213 21.4287 54.5868 21.663 53.9564L20.7257 53.608C20.4921 54.2364 20.2578 54.8603 20.0228 55.4791L20.9576 55.8342ZM22.3608 52.0617C22.5891 51.4362 22.817 50.8073 23.0445 50.1755L22.1037 49.8367C21.8766 50.4672 21.6492 51.0948 21.4214 51.7187L22.3608 52.0617ZM23.7242 48.2782C23.9483 47.6495 24.1723 47.0187 24.3963 46.3864L23.4537 46.0525C23.2298 46.6844 23.0061 47.3145 22.7822 47.9424L23.7242 48.2782ZM25.0669 44.4898C25.2898 43.8589 25.5127 43.2274 25.736 42.5955L24.7932 42.2623C24.5698 42.8943 24.3468 43.5262 24.124 44.1568L25.0669 44.4898ZM26.4063 40.702C26.6304 40.0703 26.8551 39.439 27.0804 38.8087L26.1387 38.4721C25.9131 39.1033 25.6882 39.7354 25.4639 40.3676L26.4063 40.702ZM27.7587 36.9206C27.9868 36.2892 28.2157 35.6595 28.4457 35.032L27.5067 34.6879C27.2762 35.317 27.0467 35.9482 26.8182 36.5808L27.7587 36.9206ZM29.1406 33.152C29.3755 32.5222 29.6116 31.8953 29.8491 31.2721L28.9147 30.916C28.6763 31.5416 28.4393 32.1707 28.2037 32.8025L29.1406 33.152ZM30.5698 29.4038C30.8148 28.7769 31.0614 28.1543 31.3097 27.5369L30.382 27.1637C30.1323 27.7844 29.8845 28.4101 29.6384 29.0399L30.5698 29.4038ZM32.0664 25.686C32.3253 25.0632 32.5863 24.4466 32.8495 23.8368L31.9314 23.4405C31.6663 24.0547 31.4035 24.6755 31.143 25.3021L32.0664 25.686ZM33.6538 22.0119C33.9316 21.3951 34.212 20.7865 34.4952 20.1869L33.591 19.7598C33.305 20.3652 33.0221 20.9794 32.742 21.6013L33.6538 22.0119ZM35.361 18.4012C35.6639 17.793 35.9701 17.1957 36.2799 16.6102L35.3961 16.1425C35.0822 16.7357 34.7722 17.3403 34.4659 17.9553L35.361 18.4012ZM37.2304 14.8721C37.5647 14.2814 37.9031 13.705 38.246 13.1438L37.3927 12.6224C37.0436 13.1938 36.6995 13.7799 36.3601 14.3797L37.2304 14.8721ZM39.315 11.4672C39.6869 10.909 40.0641 10.3693 40.4467 9.84929L39.6412 9.25665C39.2488 9.79004 38.8628 10.3425 38.4828 10.9126L39.315 11.4672ZM41.6729 8.27479C42.1005 7.75744 42.5348 7.26492 42.9761 6.79871L42.2499 6.11123C41.7921 6.5949 41.3429 7.10434 40.9021 7.63768L41.6729 8.27479ZM44.3754 5.43213C44.8758 4.98274 45.3849 4.56707 45.9032 4.18692L45.3117 3.38057C44.765 3.78161 44.2304 4.21832 43.7073 4.68813L44.3754 5.43213ZM47.5369 3.12596C48.106 2.80329 48.686 2.52243 49.2777 2.28549L48.9059 1.35716C48.2704 1.61168 47.6498 1.91236 47.0436 2.25607L47.5369 3.12596ZM51.1181 1.70139C51.7395 1.55453 52.3747 1.4542 53.0245 1.40294L52.9459 0.406039C52.2448 0.461339 51.559 0.569651 50.8881 0.728199L51.1181 1.70139ZM54.9457 1.39386C55.2705 1.41576 55.5992 1.44948 55.9317 1.49534L56.0683 0.504723C55.7131 0.455733 55.3614 0.419618 55.013 0.396129L54.9457 1.39386ZM55.9317 1.49534C56.2511 1.53941 56.5692 1.59119 56.8857 1.65054L57.07 0.667659C56.7377 0.605373 56.4038 0.551002 56.0683 0.504723L55.9317 1.49534ZM58.7666 2.09574C59.3836 2.27232 59.9952 2.47753 60.6012 2.71019L60.9596 1.77662C60.3271 1.53379 59.6878 1.31922 59.0417 1.13434L58.7666 2.09574ZM62.3778 3.47731C62.9566 3.75512 63.5303 4.05781 64.0986 4.38431L64.5967 3.51719C64.0079 3.17891 63.4124 2.86466 62.8105 2.57577L62.3778 3.47731ZM65.7555 5.41239C66.288 5.76749 66.8156 6.14327 67.3383 6.53877L67.9417 5.74131C67.4038 5.33435 66.86 4.94701 66.3103 4.58041L65.7555 5.41239ZM68.8663 7.76208C69.3592 8.17844 69.8474 8.61206 70.3309 9.06209L71.0122 8.33009C70.5175 7.86962 70.0173 7.42532 69.5117 6.99818L68.8663 7.76208ZM71.7306 10.4233C72.1867 10.886 72.6384 11.363 73.0856 11.8536L73.8246 11.1799C73.369 10.6801 72.9084 10.1936 72.4428 9.72125L71.7306 10.4233ZM74.3772 13.3222C74.7975 13.817 75.2136 14.3235 75.6255 14.841L76.4079 14.2182C75.9896 13.6927 75.5668 13.178 75.1393 12.6748L74.3772 13.3222ZM76.829 16.3999C77.2183 16.9192 77.6035 17.4481 77.9847 17.9859L78.8005 17.4076C78.4144 16.8629 78.024 16.3268 77.6293 15.8002L76.829 16.3999ZM79.1085 19.6138C79.4709 20.1526 79.8294 20.699 80.184 21.2527L81.0261 20.7133C80.6676 20.1536 80.3049 19.6009 79.9383 19.0557L79.1085 19.6138ZM81.2325 22.9283C81.5727 23.4846 81.9091 24.0472 82.2417 24.6156L83.1048 24.1105C82.769 23.5368 82.4293 22.9686 82.0857 22.4067L81.2325 22.9283ZM83.2236 26.3292C83.5438 26.8998 83.8604 27.4755 84.1732 28.0557L85.0534 27.5811C84.738 26.9961 84.4187 26.4155 84.0956 25.8398L83.2236 26.3292ZM85.0962 29.8008C85.3984 30.3831 85.6969 30.9693 85.9917 31.5589L86.8861 31.1116C86.5891 30.5177 86.2884 29.9271 85.9838 29.3402L85.0962 29.8008ZM86.8621 33.3309C87.1477 33.9229 87.4297 34.5177 87.708 35.1147L88.6144 34.6922C88.3342 34.0913 88.0503 33.4924 87.7627 32.8963L86.8621 33.3309ZM88.5309 36.9101C88.8013 37.5102 89.0681 38.112 89.3311 38.715L90.2477 38.3152C89.9831 37.7085 89.7147 37.1031 89.4426 36.4992L88.5309 36.9101ZM90.1107 40.5312C90.367 41.138 90.6195 41.7455 90.8683 42.3533L91.7938 41.9744C91.5436 41.3633 91.2896 40.7524 91.0318 40.1421L90.1107 40.5312ZM91.6079 44.1884C91.851 44.8008 92.0902 45.4129 92.3255 46.0242L93.2587 45.665C93.0222 45.0505 92.7818 44.4352 92.5374 43.8196L91.6079 44.1884ZM93.028 47.8772C93.2587 48.4949 93.4853 49.1113 93.708 49.7257L94.6481 49.385C94.4244 48.7676 94.1966 48.1482 93.9648 47.5274L93.028 47.8772ZM94.3747 51.5936C94.5941 52.2175 94.8092 52.8387 95.02 53.4567L95.9664 53.1338C95.7546 52.5129 95.5385 51.8888 95.3181 51.2619L94.3747 51.5936ZM95.6508 55.334C95.8595 55.9647 96.0636 56.5912 96.2632 57.2131L97.2153 56.9076C97.0149 56.2829 96.8098 55.6534 96.6002 55.0198L95.6508 55.334ZM96.8574 59.0942C97.0559 59.7327 97.2495 60.3654 97.438 60.9915L98.3955 60.7033C98.2062 60.0743 98.0118 59.4387 97.8123 58.7973L96.8574 59.0942ZM97.9949 62.8722C98.1831 63.5187 98.3657 64.1571 98.5426 64.7864L99.5053 64.5157C99.3276 63.8835 99.1441 63.2421 98.955 62.5926L97.9949 62.8722ZM99.0684 66.691C99.2426 67.3342 99.4104 67.9664 99.5719 68.5864L100.54 68.3344C100.377 67.7112 100.209 67.0759 100.034 66.4296L99.0684 66.691ZM100.064 70.5179C100.228 71.1752 100.384 71.8162 100.531 72.4397L101.504 72.209C101.356 71.5818 101.199 70.937 101.034 70.2762L100.064 70.5179ZM100.973 74.3534C101.121 75.0169 101.259 75.6559 101.387 76.2682L102.366 76.0639C102.237 75.4466 102.098 74.803 101.949 74.135L100.973 74.3534ZM101.775 78.21C101.906 78.9017 102.021 79.5474 102.119 80.1433L103.106 79.9811C103.006 79.3761 102.89 78.7223 102.757 78.0235L101.775 78.21ZM102.404 82.1032C102.446 82.4474 102.478 82.7606 102.502 83.0416L103.498 82.9585C103.474 82.6627 103.44 82.3367 103.397 81.9825L102.404 82.1032Z" fill="black"/>
</svg>
