<svg width="395" height="170" viewBox="0 0 395 170" fill="none" xmlns="http://www.w3.org/2000/svg">
<path d="M393.502 169.042C393.525 169.317 393.766 169.521 394.042 169.498C394.317 169.475 394.521 169.234 394.498 168.958L393.502 169.042ZM0.982154 1.49968C1.30078 1.51106 1.61283 1.54511 1.91866 1.60115L2.0989 0.617532C1.74488 0.552658 1.38451 0.513414 1.01785 0.500319L0.982154 1.49968ZM3.67154 2.1907C4.21528 2.46166 4.74338 2.81152 5.25657 3.23925L5.89682 2.47108C5.33041 1.99899 4.73781 1.60477 4.11756 1.29568L3.67154 2.1907ZM6.59306 4.56722C6.99827 5.03791 7.39251 5.56079 7.77602 6.13444L8.60735 5.57865C8.20408 4.97545 7.7856 4.41972 7.35091 3.91479L6.59306 4.56722ZM8.78852 7.81083C9.09203 8.36401 9.38776 8.95057 9.67595 9.56937L10.5825 9.14718C10.2859 8.51041 9.98031 7.90407 9.66523 7.32981L8.78852 7.81083ZM10.4669 11.3939C10.7084 11.991 10.944 12.6118 11.1741 13.2554L12.1157 12.9188C11.8815 12.2633 11.641 11.6297 11.394 11.019L10.4669 11.3939ZM11.8075 15.1283C12.0099 15.7601 12.2077 16.4104 12.401 17.0785L13.3616 16.8006C13.1658 16.124 12.9653 15.4646 12.7598 14.8232L11.8075 15.1283ZM12.921 18.9585C13.0906 19.5996 13.2566 20.255 13.4191 20.9242L14.3909 20.6882C14.2269 20.0128 14.0592 19.3508 13.8877 18.7027L12.921 18.9585ZM13.8724 22.8658C14.015 23.5008 14.1548 24.1467 14.2918 24.8031L15.2707 24.5988C15.1327 23.9376 14.9919 23.2868 14.8481 22.6467L13.8724 22.8658ZM14.6949 26.8036C14.8195 27.4436 14.9416 28.0925 15.0616 28.7501L16.0454 28.5707C15.9247 27.9094 15.8018 27.2566 15.6765 26.6126L14.6949 26.8036ZM15.4084 30.7109C15.5219 31.3725 15.6334 32.0422 15.7428 32.7194L16.73 32.5598C16.6201 31.8795 16.5081 31.2068 16.394 30.5418L15.4084 30.7109ZM16.052 34.6857C16.1514 35.3354 16.2491 35.9916 16.3452 36.6539L17.3349 36.5102C17.2384 35.8456 17.1403 35.1869 17.0405 34.5345L16.052 34.6857ZM16.6289 38.6588C16.7198 39.318 16.8093 39.9828 16.8974 40.6528L17.8889 40.5225C17.8005 39.8504 17.7108 39.1835 17.6195 38.5221L16.6289 38.6588ZM17.1505 42.6216C17.2336 43.2827 17.3155 43.9486 17.3961 44.6189L18.389 44.4994C18.3081 43.8274 18.226 43.1598 18.1427 42.4969L17.1505 42.6216ZM17.6344 46.641C17.7097 47.2929 17.7839 47.9488 17.8572 48.6084L18.8511 48.498C18.7777 47.8371 18.7033 47.1798 18.6278 46.5263L17.6344 46.641ZM18.0741 50.5981C18.1455 51.2648 18.216 51.935 18.2856 52.6085L19.2803 52.5057C19.2106 51.831 19.14 51.1596 19.0684 50.4916L18.0741 50.5981ZM18.489 54.6092C18.5549 55.2678 18.62 55.9292 18.6845 56.5933L19.6798 56.4967C19.6153 55.8317 19.55 55.1692 19.484 54.5096L18.489 54.6092ZM18.8757 58.5932C18.9388 59.2623 19.0013 59.9339 19.0632 60.6078L20.059 60.5163C19.997 59.8417 19.9345 59.1693 19.8713 58.4993L18.8757 58.5932ZM19.2438 62.5995C19.3031 63.2622 19.362 63.9268 19.4204 64.5931L20.4166 64.5058C20.3581 63.8389 20.2992 63.1736 20.2398 62.5103L19.2438 62.5995ZM19.5942 66.5973C19.6517 67.2668 19.7088 67.9378 19.7655 68.6103L20.762 68.5263C20.7052 67.8533 20.6481 67.1818 20.5906 66.5117L19.5942 66.5973ZM19.9321 70.6022C19.9873 71.2674 20.0422 71.9337 20.0969 72.6011L21.0935 72.5195C21.0389 71.8518 20.9839 71.1851 20.9287 70.5195L19.9321 70.6022ZM20.2601 74.6059C20.3141 75.2741 20.368 75.9431 20.4217 76.6127L21.4185 76.5328C21.3648 75.8629 21.3109 75.1937 21.2568 74.5252L20.2601 74.6059ZM20.5814 78.6117C20.6345 79.2785 20.6875 79.9458 20.7404 80.6134L21.7373 80.5344C21.6844 79.8667 21.6314 79.1993 21.5783 78.5323L20.5814 78.6117ZM20.899 82.6167C20.9518 83.2847 21.0046 83.9527 21.0574 84.6208L22.0543 84.542C22.0015 83.874 21.9487 83.2059 21.8959 82.5378L20.899 82.6167ZM21.2159 86.6249C21.2688 87.2928 21.3218 87.9604 21.3748 88.6275L22.3717 88.5482C22.3186 87.8812 22.2657 87.2137 22.2128 86.546L21.2159 86.6249ZM21.5344 90.6275C21.588 91.2964 21.6417 91.9646 21.6956 92.632L22.6923 92.5515C22.6385 91.8843 22.5848 91.2163 22.5312 90.5477L21.5344 90.6275ZM21.8586 94.6396C21.9132 95.3079 21.968 95.9752 22.0232 96.6414L23.0198 96.5589C22.9647 95.8931 22.9099 95.2261 22.8553 94.5582L21.8586 94.6396ZM22.1895 98.6362C22.2459 99.3071 22.3027 99.9767 22.3598 100.645L23.3562 100.559C23.2991 99.892 23.2424 99.2229 23.186 98.5524L22.1895 98.6362ZM22.5334 102.654C22.5917 103.322 22.6504 103.988 22.7097 104.652L23.7057 104.563C23.6465 103.9 23.5878 103.234 23.5296 102.567L22.5334 102.654ZM22.889 106.639C22.9507 107.314 23.013 107.987 23.0759 108.657L24.0715 108.564C24.0087 107.894 23.9465 107.222 23.8849 106.548L22.889 106.639ZM23.2668 110.664C23.3311 111.331 23.3961 111.994 23.4619 112.655L24.457 112.556C24.3913 111.896 24.3264 111.234 24.2622 110.568L23.2668 110.664ZM23.6632 114.647C23.7327 115.323 23.8031 115.997 23.8744 116.666L24.8688 116.561C24.7976 115.892 24.7274 115.22 24.658 114.544L23.6632 114.647ZM24.0911 118.666C24.1643 119.328 24.2384 119.987 24.3136 120.643L25.3071 120.529C25.2321 119.875 25.1581 119.217 25.085 118.556L24.0911 118.666ZM24.5493 122.655C24.6299 123.33 24.7118 124 24.7948 124.665L25.7871 124.541C25.7043 123.877 25.6227 123.209 25.5422 122.536L24.5493 122.655ZM25.0479 126.646C25.135 127.312 25.2234 127.973 25.3133 128.629L26.304 128.493C26.2144 127.84 26.1263 127.181 26.0395 126.516L25.0479 126.646ZM25.5973 130.65C25.6936 131.317 25.7915 131.978 25.8911 132.634L26.8797 132.483C26.7805 131.831 26.683 131.172 26.5871 130.507L25.5973 130.65ZM26.1966 134.588C26.3064 135.272 26.4183 135.949 26.5322 136.617L27.518 136.449C27.4046 135.784 27.2933 135.111 27.1839 134.43L26.1966 134.588ZM26.8806 138.598C26.9993 139.252 27.1202 139.898 27.2435 140.535L28.2253 140.345C28.1028 139.712 27.9826 139.07 27.8646 138.42L26.8806 138.598ZM27.6495 142.561C27.7877 143.226 27.9286 143.881 28.0726 144.525L29.0485 144.306C28.9057 143.668 28.7658 143.018 28.6286 142.358L27.6495 142.561ZM28.5231 146.463C28.6876 147.143 28.8557 147.81 29.0278 148.462L29.9947 148.207C29.8245 147.562 29.658 146.902 29.4951 146.228L28.5231 146.463ZM29.5557 150.376C29.7494 151.047 29.9477 151.701 30.151 152.336L31.1035 152.032C30.9033 151.406 30.7077 150.761 30.5164 150.099L29.5557 150.376ZM30.7991 154.254C31.0314 154.904 31.27 155.533 31.515 156.138L32.442 155.763C32.2025 155.171 31.9688 154.556 31.7407 153.918L30.7991 154.254ZM32.3342 158.023C32.63 158.656 32.9349 159.258 33.2493 159.828L34.1248 159.344C33.8222 158.796 33.5274 158.214 33.2401 157.6L32.3342 158.023ZM34.3218 161.587C34.7276 162.187 35.149 162.738 35.5869 163.237L36.3385 162.577C35.9314 162.114 35.5353 161.596 35.1499 161.027L34.3218 161.587ZM37.0608 164.664C37.6367 165.128 38.2398 165.511 38.8716 165.805L39.2935 164.898C38.7426 164.642 38.2079 164.304 37.6884 163.885L37.0608 164.664ZM40.9107 166.42C41.2676 166.473 41.6307 166.5 42 166.5V165.5C41.679 165.5 41.3649 165.477 41.0573 165.431L40.9107 166.42ZM42 166.5C42.3646 166.5 42.7241 166.477 43.0786 166.431L42.9503 165.439C42.6388 165.48 42.3221 165.5 42 165.5V166.5ZM45.1266 165.894C45.7729 165.635 46.3962 165.297 46.9977 164.884L46.4323 164.059C45.886 164.434 45.3271 164.737 44.7546 164.966L45.1266 165.894ZM48.5883 163.579C49.0678 163.118 49.5328 162.608 49.9845 162.051L49.2077 161.421C48.7791 161.95 48.3418 162.429 47.8953 162.858L48.5883 163.579ZM51.2131 160.375C51.5727 159.836 51.924 159.266 52.2675 158.665L51.3995 158.169C51.0663 158.751 50.727 159.302 50.3813 159.82L51.2131 160.375ZM53.2507 156.825C53.5385 156.25 53.8208 155.653 54.098 155.035L53.1856 154.626C52.9137 155.232 52.6374 155.816 52.3564 156.378L53.2507 156.825ZM54.9084 153.134C55.1525 152.532 55.3927 151.914 55.6291 151.279L54.692 150.93C54.4588 151.556 54.2221 152.165 53.9818 152.758L54.9084 153.134ZM56.3151 149.364C56.531 148.737 56.7438 148.097 56.9537 147.443L56.0016 147.138C55.7938 147.785 55.5832 148.418 55.3696 149.038L56.3151 149.364ZM57.5481 145.533C57.7437 144.885 57.9368 144.225 58.1274 143.554L57.1655 143.281C56.9762 143.947 56.7847 144.601 56.5907 145.244L57.5481 145.533ZM58.655 141.649C58.8283 141.007 58.9997 140.356 59.1693 139.697L58.2008 139.448C58.0322 140.103 57.8618 140.751 57.6896 141.389L58.655 141.649ZM59.6663 137.719C59.8227 137.083 59.9775 136.439 60.131 135.789L59.1578 135.559C59.0049 136.207 58.8508 136.847 58.6952 137.48L59.6663 137.719ZM60.5875 133.818C60.736 133.164 60.8832 132.505 61.0294 131.839L60.0526 131.625C59.907 132.288 59.7603 132.945 59.6123 133.596L60.5875 133.818ZM61.4497 129.893C61.5888 129.239 61.727 128.58 61.8642 127.916L60.8849 127.713C60.748 128.376 60.6103 129.033 60.4716 129.685L61.4497 129.893ZM62.2691 125.93C62.3993 125.283 62.5287 124.631 62.6574 123.976L61.6762 123.783C61.5477 124.437 61.4186 125.087 61.2887 125.732L62.2691 125.93ZM63.0418 121.998C63.1689 121.337 63.2955 120.671 63.4216 120.003L62.4389 119.818C62.313 120.485 62.1867 121.149 62.0598 121.809L63.0418 121.998ZM63.7875 118.045C63.909 117.389 64.0302 116.73 64.1509 116.069L63.1672 115.889C63.0466 116.55 62.9256 117.208 62.8043 117.863L63.7875 118.045ZM64.5122 114.076C64.6301 113.421 64.7478 112.765 64.8652 112.105L63.8807 111.93C63.7634 112.589 63.6459 113.245 63.5281 113.899L64.5122 114.076ZM65.2153 110.131C65.3318 109.471 65.4482 108.809 65.5645 108.145L64.5795 107.972C64.4633 108.636 64.347 109.298 64.2305 109.957L65.2153 110.131ZM65.9109 106.162C66.0253 105.506 66.1397 104.848 66.2541 104.189L65.2688 104.018C65.1544 104.677 65.0401 105.334 64.9257 105.991L65.9109 106.162ZM66.5976 102.207C66.7122 101.546 66.8269 100.884 66.9417 100.221L65.9564 100.05C65.8415 100.713 65.7269 101.376 65.6123 102.037L66.5976 102.207ZM67.284 98.2456C67.3983 97.5866 67.5128 96.9271 67.6277 96.2672L66.6425 96.0958C66.5276 96.7559 66.413 97.4156 66.2987 98.0747L67.284 98.2456ZM67.973 94.2868C68.0884 93.6269 68.2041 92.9669 68.3202 92.307L67.3353 92.1337C67.2191 92.794 67.1034 93.4544 66.9879 94.1146L67.973 94.2868ZM68.6696 90.3287C68.7865 89.6696 68.9039 89.0107 69.0218 88.3524L68.0375 88.1761C67.9195 88.835 67.802 89.4944 67.685 90.1541L68.6696 90.3287ZM69.3774 86.3777C69.4971 85.7167 69.6174 85.0564 69.7383 84.3972L68.7548 84.2167C68.6337 84.8768 68.5132 85.5378 68.3934 86.1995L69.3774 86.3777ZM70.1032 82.4226C70.2254 81.7655 70.3484 81.1096 70.4722 80.4552L69.4896 80.2694C69.3657 80.9248 69.2425 81.5816 69.12 82.2396L70.1032 82.4226ZM70.8494 78.4777C70.9764 77.8177 71.1043 77.1594 71.2331 76.5029L70.2518 76.3104C70.1227 76.9681 69.9946 77.6276 69.8674 78.2888L70.8494 78.4777ZM71.6222 74.5396C71.7538 73.8827 71.8863 73.228 72.0199 72.5757L71.0402 72.3751C70.9063 73.0289 70.7735 73.685 70.6417 74.3432L71.6222 74.5396ZM72.4295 70.5995C72.5672 69.9434 72.706 69.29 72.846 68.6396L71.8684 68.4292C71.728 69.0813 71.5888 69.7364 71.4508 70.3941L72.4295 70.5995ZM73.27 66.6963C73.4165 66.0336 73.5644 65.3743 73.7138 64.7187L72.7388 64.4966C72.5889 65.1543 72.4406 65.8157 72.2936 66.4803L73.27 66.6963ZM74.1661 62.7631C74.3184 62.1151 74.4721 61.471 74.6274 60.8311L73.6556 60.5953C73.4997 61.2376 73.3454 61.8841 73.1926 62.5344L74.1661 62.7631ZM75.1122 58.8679C75.2766 58.2137 75.4428 57.5642 75.6108 56.9199L74.6432 56.6675C74.4744 57.3148 74.3074 57.9672 74.1423 58.6242L75.1122 58.8679ZM76.1205 55.0025C76.2978 54.3482 76.4771 53.6998 76.6586 53.0574L75.6962 52.7856C75.5138 53.4315 75.3335 54.0834 75.1553 54.7409L76.1205 55.0025ZM77.2167 51.124C77.405 50.486 77.5956 49.8546 77.7885 49.2302L76.8331 48.935C76.6389 49.5636 76.4471 50.1991 76.2576 50.8409L77.2167 51.124ZM78.3985 47.3036C78.6074 46.6603 78.819 46.0251 79.0334 45.3984L78.0872 45.0747C77.871 45.7066 77.6578 46.3467 77.4474 46.9949L78.3985 47.3036ZM79.6851 43.5445C79.9185 42.8985 80.1552 42.2626 80.3953 41.6373L79.4618 41.2789C79.2192 41.9107 78.9802 42.5527 78.7446 43.2046L79.6851 43.5445ZM81.1294 39.7848C81.383 39.1653 81.6402 38.5573 81.9013 37.9615L80.9854 37.5602C80.7208 38.1638 80.4604 38.7793 80.2039 39.4061L81.1294 39.7848ZM82.7388 36.1204C83.0223 35.5205 83.3101 34.9348 83.6025 34.3637L82.7124 33.908C82.4149 34.489 82.1225 35.0842 81.8347 35.6931L82.7388 36.1204ZM84.5573 32.5802C84.8852 31.9953 85.2186 31.4285 85.5575 30.8805L84.707 30.3545C84.3601 30.9154 84.0195 31.4946 83.6851 32.0913L84.5573 32.5802ZM86.6465 29.2134C87.0298 28.659 87.4198 28.1281 87.8169 27.6215L87.0299 27.0046C86.6197 27.5279 86.2179 28.0749 85.824 28.6447L86.6465 29.2134ZM89.0866 26.1125C89.5367 25.6158 89.9952 25.1496 90.4625 24.7148L89.7813 23.9827C89.2919 24.4381 88.8135 24.9247 88.3456 25.4409L89.0866 26.1125ZM91.9616 23.4519C92.4864 23.0548 93.0215 22.6958 93.5674 22.376L93.062 21.5131C92.4803 21.8539 91.9125 22.235 91.3582 22.6545L91.9616 23.4519ZM95.3074 21.5064C95.9028 21.2586 96.511 21.0549 97.1327 20.8969L96.8864 19.9277C96.2165 20.098 95.5622 20.3172 94.9231 20.5832L95.3074 21.5064ZM99.0312 20.5623C99.3548 20.5297 99.6822 20.5088 100.014 20.4998L99.9865 19.5002C99.6309 19.5098 99.2791 19.5323 98.9309 19.5674L99.0312 20.5623ZM100.014 20.4998C100.341 20.491 100.665 20.4941 100.985 20.5091L101.032 19.5102C100.687 19.4941 100.338 19.4907 99.9865 19.5002L100.014 20.4998ZM102.866 20.7385C103.486 20.8622 104.094 21.0323 104.689 21.2472L105.028 20.3067C104.387 20.0752 103.732 19.8915 103.062 19.7578L102.866 20.7385ZM106.435 22.0232C106.984 22.3143 107.523 22.6457 108.052 23.016L108.626 22.1967C108.065 21.8041 107.49 21.451 106.903 21.1397L106.435 22.0232ZM109.569 24.2061C110.042 24.6176 110.506 25.0615 110.962 25.5365L111.683 24.8439C111.208 24.3489 110.722 23.8845 110.226 23.4522L109.569 24.2061ZM112.252 26.9878C112.655 27.4747 113.051 27.9866 113.44 28.5225L114.249 27.9345C113.848 27.3829 113.439 26.8546 113.023 26.3507L112.252 26.9878ZM114.551 30.1411C114.895 30.6716 115.234 31.2211 115.569 31.7891L116.431 31.2821C116.089 30.7022 115.743 30.1401 115.39 29.5966L114.551 30.1411ZM116.547 33.5305C116.845 34.0851 117.138 34.6545 117.428 35.2382L118.324 34.7937C118.029 34.2009 117.731 33.6219 117.428 33.0574L116.547 33.5305ZM118.284 37.0314C118.553 37.6147 118.818 38.2105 119.08 38.8182L119.998 38.4228C119.733 37.8079 119.465 37.2045 119.193 36.6132L118.284 37.0314ZM119.833 40.6237C120.081 41.2365 120.325 41.86 120.567 42.4938L121.501 42.1377C121.257 41.4979 121.01 40.8681 120.76 40.2488L119.833 40.6237ZM121.239 44.3062C121.46 44.9174 121.679 45.5373 121.894 46.1655L122.84 45.8405C122.623 45.2076 122.403 44.5827 122.18 43.9662L121.239 44.3062ZM122.531 48.0631C122.73 48.6723 122.928 49.2885 123.123 49.9114L124.077 49.6122C123.881 48.9855 123.682 48.3653 123.481 47.7519L122.531 48.0631ZM123.703 51.7996C123.893 52.433 124.082 53.0727 124.268 53.7184L125.229 53.4408C125.041 52.7918 124.852 52.1487 124.66 51.5117L123.703 51.7996ZM124.799 55.5908C124.975 56.2202 125.148 56.8548 125.32 57.4943L126.286 57.2345C126.113 56.5923 125.939 55.9548 125.763 55.3224L124.799 55.5908ZM125.832 59.4273C125.995 60.0542 126.157 60.6853 126.317 61.3205L127.287 61.0758C127.126 60.4383 126.963 59.8048 126.8 59.1755L125.832 59.4273ZM126.793 63.2323C126.95 63.8734 127.106 64.5183 127.26 65.1667L128.233 64.9346C128.078 64.2843 127.921 63.6374 127.764 62.9941L126.793 63.2323ZM127.712 67.0856C127.86 67.7215 128.007 68.3606 128.153 69.0025L129.128 68.7811C128.982 68.1376 128.834 67.4968 128.686 66.8591L127.712 67.0856ZM128.587 70.9364C128.73 71.5802 128.871 72.2265 129.012 72.8752L129.99 72.6628C129.848 72.0127 129.706 71.3649 129.563 70.7197L128.587 70.9364ZM129.426 74.7965C129.563 75.4391 129.699 76.0837 129.835 76.7302L130.813 76.5252C130.678 75.8776 130.541 75.2318 130.404 74.588L129.426 74.7965ZM130.239 78.6748C130.371 79.3174 130.503 79.9615 130.634 80.607L131.614 80.4081C131.483 79.7617 131.351 79.1166 131.218 78.473L130.239 78.6748ZM131.024 82.5418C131.153 83.188 131.282 83.8353 131.411 84.4836L132.392 84.2894C132.263 83.6404 132.134 82.9924 132.004 82.3454L131.024 82.5418ZM131.793 86.427C131.92 87.0724 132.045 87.7185 132.171 88.3651L133.153 88.1746C133.027 87.5275 132.901 86.8808 132.774 86.2348L131.793 86.427ZM132.546 90.3064C132.671 90.9539 132.795 91.6017 132.919 92.2496L133.901 92.0616C133.777 91.4134 133.653 90.7652 133.528 90.1173L132.546 90.3064ZM133.29 94.1937C133.414 94.8418 133.537 95.4898 133.66 96.1374L134.642 95.9509C134.519 95.3031 134.396 94.6549 134.273 94.0066L133.29 94.1937ZM134.028 98.0793C134.151 98.7273 134.273 99.3748 134.396 100.022L135.378 99.8355C135.256 99.1887 135.133 98.5412 135.011 97.8932L134.028 98.0793ZM134.765 101.971C134.888 102.62 135.011 103.267 135.134 103.914L136.117 103.727C135.994 103.081 135.871 102.433 135.748 101.784L134.765 101.971ZM135.503 105.851C135.627 106.502 135.752 107.152 135.876 107.801L136.858 107.612C136.734 106.964 136.61 106.314 136.485 105.663L135.503 105.851ZM136.252 109.749C136.377 110.396 136.503 111.042 136.628 111.686L137.61 111.494C137.484 110.851 137.359 110.206 137.234 109.559L136.252 109.749ZM137.008 113.622C137.137 114.276 137.267 114.928 137.396 115.577L138.377 115.381C138.247 114.733 138.118 114.082 137.989 113.429L137.008 113.622ZM137.787 117.516C137.917 118.16 138.048 118.8 138.179 119.438L139.159 119.236C139.028 118.6 138.897 117.96 138.767 117.317L137.787 117.516ZM138.586 121.395C138.722 122.046 138.859 122.693 138.997 123.337L139.975 123.128C139.838 122.485 139.701 121.839 139.565 121.19L138.586 121.395ZM139.412 125.256C139.555 125.908 139.698 126.555 139.842 127.199L140.818 126.98C140.674 126.339 140.531 125.693 140.389 125.043L139.412 125.256ZM140.283 129.142C140.431 129.785 140.58 130.424 140.73 131.057L141.703 130.826C141.554 130.195 141.405 129.559 141.258 128.918L140.283 129.142ZM141.194 132.984C141.353 133.637 141.514 134.285 141.676 134.925L142.646 134.68C142.484 134.042 142.324 133.398 142.165 132.747L141.194 132.984ZM142.166 136.829C142.336 137.475 142.507 138.114 142.679 138.745L143.644 138.482C143.472 137.854 143.302 137.218 143.133 136.575L142.166 136.829ZM143.218 140.675C143.399 141.31 143.582 141.937 143.767 142.554L144.725 142.268C144.541 141.654 144.359 141.032 144.179 140.4L143.218 140.675ZM144.354 144.469C144.557 145.112 144.762 145.745 144.97 146.367L145.918 146.051C145.713 145.434 145.509 144.807 145.308 144.168L144.354 144.469ZM145.601 148.203C145.832 148.856 146.066 149.494 146.304 150.118L147.238 149.763C147.004 149.146 146.772 148.515 146.543 147.869L145.601 148.203ZM147.026 151.948C147.285 152.581 147.549 153.197 147.816 153.796L148.729 153.388C148.466 152.799 148.207 152.193 147.951 151.569L147.026 151.948ZM148.663 155.602C148.964 156.214 149.27 156.805 149.582 157.373L150.459 156.891C150.155 156.337 149.855 155.76 149.56 155.16L148.663 155.602ZM150.6 159.109C150.967 159.696 151.342 160.252 151.726 160.777L152.533 160.187C152.165 159.683 151.803 159.147 151.447 158.579L150.6 159.109ZM152.982 162.344C153.453 162.877 153.937 163.365 154.435 163.803L155.096 163.053C154.632 162.645 154.178 162.187 153.731 161.682L152.982 162.344ZM156.058 165.024C156.659 165.401 157.279 165.711 157.919 165.947L158.265 165.009C157.695 164.798 157.136 164.52 156.59 164.177L156.058 165.024ZM159.942 166.437C160.29 166.479 160.643 166.5 161 166.5V165.5C160.682 165.5 160.369 165.481 160.061 165.444L159.942 166.437ZM161 166.5C161.361 166.5 161.718 166.482 162.07 166.446L161.969 165.451C161.651 165.484 161.328 165.5 161 165.5V166.5ZM164.131 166.025C164.798 165.817 165.446 165.543 166.076 165.208L165.607 164.325C165.028 164.633 164.437 164.882 163.833 165.07L164.131 166.025ZM167.823 164.092C168.362 163.688 168.887 163.237 169.4 162.742L168.705 162.023C168.22 162.491 167.726 162.915 167.223 163.292L167.823 164.092ZM170.827 161.216C171.251 160.716 171.666 160.186 172.073 159.627L171.265 159.038C170.871 159.579 170.471 160.09 170.065 160.568L170.827 161.216ZM173.238 157.913C173.591 157.359 173.938 156.782 174.28 156.184L173.411 155.688C173.077 156.274 172.739 156.837 172.395 157.376L173.238 157.913ZM175.259 154.38C175.562 153.794 175.861 153.191 176.156 152.572L175.253 152.142C174.962 152.752 174.669 153.345 174.371 153.921L175.259 154.38ZM177.009 150.709C177.275 150.106 177.538 149.49 177.797 148.862L176.873 148.48C176.616 149.102 176.357 149.71 176.094 150.305L177.009 150.709ZM178.563 146.95C178.801 146.339 179.036 145.717 179.269 145.085L178.33 144.739C178.099 145.366 177.866 145.982 177.631 146.588L178.563 146.95ZM179.961 143.16C180.18 142.535 180.398 141.902 180.613 141.26L179.665 140.941C179.451 141.579 179.235 142.209 179.017 142.829L179.961 143.16ZM181.246 139.339C181.453 138.699 181.658 138.051 181.862 137.396L180.907 137.099C180.704 137.751 180.5 138.395 180.294 139.032L181.246 139.339ZM182.448 135.482C182.643 134.838 182.836 134.188 183.028 133.532L182.068 133.251C181.877 133.904 181.684 134.552 181.491 135.193L182.448 135.482ZM183.587 131.596C183.771 130.955 183.953 130.309 184.134 129.658L183.171 129.389C182.99 130.038 182.808 130.682 182.626 131.322L183.587 131.596ZM184.676 127.694C184.851 127.053 185.026 126.408 185.2 125.759L184.234 125.5C184.06 126.147 183.886 126.791 183.711 127.43L184.676 127.694ZM185.719 123.809C185.891 123.157 186.063 122.502 186.234 121.845L185.266 121.592C185.095 122.249 184.924 122.903 184.752 123.553L185.719 123.809ZM186.738 119.902C186.905 119.252 187.072 118.6 187.24 117.946L186.271 117.698C186.104 118.352 185.937 119.003 185.769 119.653L186.738 119.902ZM187.739 115.985C187.904 115.337 188.068 114.687 188.233 114.036L187.264 113.791C187.099 114.442 186.935 115.091 186.77 115.739L187.739 115.985ZM188.727 112.079C188.892 111.427 189.056 110.774 189.221 110.121L188.251 109.876C188.087 110.53 187.922 111.182 187.758 111.834L188.727 112.079ZM189.714 108.168C189.878 107.516 190.043 106.864 190.208 106.212L189.239 105.967C189.074 106.619 188.909 107.271 188.744 107.923L189.714 108.168ZM190.705 104.257C190.871 103.606 191.037 102.955 191.204 102.304L190.236 102.056C190.068 102.707 189.902 103.359 189.736 104.01L190.705 104.257ZM191.707 100.354C191.876 99.7024 192.045 99.0518 192.215 98.4023L191.248 98.1489C191.077 98.7994 190.908 99.4509 190.739 100.103L191.707 100.354ZM192.729 96.4517C192.901 95.8028 193.075 95.1552 193.248 94.5094L192.283 94.2493C192.109 94.8965 191.935 95.5452 191.763 96.1952L192.729 96.4517ZM193.777 92.5623C193.955 91.912 194.134 91.2638 194.315 90.6179L193.351 90.3491C193.171 90.9966 192.991 91.6464 192.813 92.2981L193.777 92.5623ZM194.859 88.6876C195.044 88.0374 195.231 87.39 195.418 86.7457L194.458 86.4658C194.27 87.1122 194.083 87.7616 193.897 88.4136L194.859 88.6876ZM195.989 84.8125C196.18 84.1715 196.374 83.5339 196.568 82.9L195.612 82.6066C195.417 83.2429 195.223 83.8829 195.031 84.5262L195.989 84.8125ZM197.171 80.9638C197.374 80.3212 197.579 79.683 197.786 79.0495L196.835 78.7393C196.627 79.3759 196.422 80.017 196.218 80.6623L197.171 80.9638ZM198.415 77.1522C198.633 76.5071 198.853 75.8675 199.075 75.2337L198.131 74.9032C197.908 75.5407 197.687 76.1839 197.468 76.8324L198.415 77.1522ZM199.747 73.3503C199.979 72.7148 200.212 72.0859 200.449 71.4639L199.514 71.1088C199.276 71.7353 199.04 72.3685 198.807 73.0081L199.747 73.3503ZM201.179 69.5836C201.425 68.9644 201.674 68.3529 201.926 67.7495L201.003 67.3644C200.749 67.9732 200.498 68.5899 200.25 69.2141L201.179 69.5836ZM202.728 65.8778C202.999 65.2627 203.273 64.6571 203.55 64.0616L202.644 63.6393C202.363 64.2416 202.086 64.8536 201.813 65.4749L202.728 65.8778ZM204.42 62.2499C204.721 61.6424 205.026 61.0468 205.336 60.4637L204.452 59.9953C204.138 60.5869 203.829 61.1906 203.524 61.8059L204.42 62.2499ZM206.292 58.7232C206.631 58.1298 206.974 57.5514 207.322 56.9886L206.472 56.4624C206.117 57.0359 205.767 57.6247 205.423 58.2278L206.292 58.7232ZM208.391 55.3347C208.775 54.7668 209.164 54.2177 209.56 53.6883L208.759 53.0894C208.353 53.6323 207.954 54.1944 207.562 54.7748L208.391 55.3347ZM210.776 52.1488C211.214 51.6247 211.659 51.1245 212.112 50.6492L211.387 49.9596C210.919 50.4516 210.46 50.9679 210.009 51.5075L210.776 52.1488ZM213.514 49.2783C214.013 48.8261 214.521 48.4034 215.038 48.0113L214.434 47.2145C213.893 47.6251 213.362 48.0666 212.843 48.5372L213.514 49.2783ZM216.656 46.9043C217.218 46.5598 217.791 46.2503 218.375 45.9772L217.951 45.0714C217.332 45.361 216.726 45.6883 216.133 46.0515L216.656 46.9043ZM220.189 45.2584C220.806 45.0573 221.435 44.8948 222.076 44.7727L221.889 43.7903C221.205 43.9205 220.536 44.0936 219.879 44.3078L220.189 45.2584ZM224.005 44.5307C224.333 44.5103 224.665 44.5 225 44.5V43.5C224.644 43.5 224.292 43.5109 223.943 43.5326L224.005 44.5307ZM225 44.5C225.328 44.5 225.653 44.5101 225.976 44.53L226.038 43.5319C225.694 43.5107 225.349 43.5 225 43.5V44.5ZM227.882 44.7662C228.511 44.8844 229.132 45.0411 229.742 45.2351L230.045 44.282C229.396 44.0759 228.737 43.9091 228.066 43.7834L227.882 44.7662ZM231.546 45.9269C232.123 46.1871 232.693 46.4814 233.254 46.8088L233.758 45.945C233.168 45.6008 232.568 45.2903 231.957 45.0152L231.546 45.9269ZM234.883 47.8665C235.4 48.2368 235.911 48.6357 236.414 49.0621L237.06 48.2989C236.537 47.856 236.006 47.4404 235.465 47.0535L234.883 47.8665ZM237.856 50.3743C238.315 50.8217 238.768 51.2922 239.216 51.785L239.956 51.1125C239.495 50.6057 239.028 50.1205 238.554 49.6582L237.856 50.3743ZM240.493 53.2686C240.901 53.7668 241.303 54.2835 241.701 54.8178L242.503 54.2205C242.097 53.6747 241.685 53.1461 241.267 52.6356L240.493 53.2686ZM242.848 56.4239C243.211 56.9546 243.571 57.5 243.926 58.0595L244.77 57.523C244.409 56.9543 244.043 56.3993 243.673 55.8587L242.848 56.4239ZM244.971 59.7604C245.298 60.3118 245.622 60.8751 245.942 61.4496L246.816 60.9624C246.491 60.3804 246.163 59.8095 245.831 59.2501L244.971 59.7604ZM246.894 63.2067C247.196 63.7784 247.494 64.3601 247.789 64.9511L248.684 64.504C248.385 63.9069 248.084 63.319 247.779 62.7407L246.894 63.2067ZM248.656 66.7291C248.939 67.324 249.22 67.9273 249.498 68.5386L250.408 68.1247C250.128 67.5082 249.845 66.8996 249.559 66.2993L248.656 66.7291ZM250.295 70.3292C250.559 70.9333 250.82 71.5444 251.079 72.1622L252.001 71.7756C251.74 71.1536 251.477 70.5381 251.212 69.9295L250.295 70.3292ZM251.832 73.9924C252.077 74.5981 252.32 75.2096 252.561 75.8265L253.492 75.4626C253.25 74.8423 253.006 74.2271 252.759 73.6177L251.832 73.9924ZM253.278 77.693C253.509 78.3042 253.738 78.9201 253.966 79.5406L254.905 79.196C254.676 78.5727 254.446 77.9537 254.213 77.3393L253.278 77.693ZM254.64 81.4028C254.863 82.0277 255.084 82.6568 255.304 83.2896L256.249 82.9613C256.028 82.326 255.806 81.6943 255.582 81.0667L254.64 81.4028ZM255.944 85.1534C256.156 85.7771 256.366 86.4041 256.575 87.0341L257.524 86.7194C257.314 86.0873 257.104 85.4581 256.891 84.8321L255.944 85.1534ZM257.197 88.9324C257.4 89.5564 257.601 90.1829 257.801 90.8117L258.754 90.5084C258.554 89.8779 258.352 89.2495 258.149 88.6237L257.197 88.9324ZM258.398 92.7047C258.596 93.3378 258.793 93.9728 258.989 94.6095L259.945 94.3157C259.748 93.6776 259.551 93.041 259.353 92.4064L258.398 92.7047ZM259.566 96.5025C259.757 97.1351 259.948 97.769 260.138 98.404L261.096 98.118C260.906 97.4818 260.715 96.8466 260.523 96.2128L259.566 96.5025ZM260.704 100.312C260.891 100.946 261.077 101.581 261.262 102.216L262.222 101.936C262.036 101.3 261.85 100.664 261.663 100.03L260.704 100.312ZM261.815 104.124C261.999 104.76 262.182 105.397 262.364 106.033L263.326 105.758C263.143 105.121 262.96 104.483 262.776 103.846L261.815 104.124ZM262.91 107.946C263.092 108.583 263.272 109.221 263.452 109.857L264.415 109.585C264.234 108.948 264.054 108.31 263.872 107.672L262.91 107.946ZM263.991 111.766C264.172 112.407 264.352 113.046 264.531 113.685L265.494 113.414C265.314 112.776 265.134 112.136 264.954 111.495L263.991 111.766ZM265.068 115.599C265.247 116.236 265.425 116.871 265.603 117.505L266.566 117.235C266.388 116.601 266.21 115.966 266.031 115.329L265.068 115.599ZM266.144 119.428C266.324 120.068 266.504 120.707 266.683 121.343L267.646 121.071C267.466 120.435 267.286 119.797 267.106 119.157L266.144 119.428ZM267.221 123.244C267.404 123.888 267.587 124.531 267.769 125.17L268.731 124.895C268.549 124.257 268.366 123.615 268.183 122.971L267.221 123.244ZM268.318 127.082C268.501 127.717 268.684 128.348 268.867 128.976L269.827 128.697C269.644 128.07 269.462 127.439 269.279 126.805L268.318 127.082ZM269.432 130.905C269.62 131.544 269.809 132.179 269.998 132.809L270.956 132.522C270.767 131.893 270.579 131.26 270.391 130.622L269.432 130.905ZM270.569 134.703C270.766 135.349 270.963 135.989 271.16 136.624L272.115 136.328C271.918 135.694 271.722 135.056 271.526 134.412L270.569 134.703ZM271.753 138.512C271.956 139.151 272.159 139.785 272.363 140.411L273.314 140.102C273.111 139.478 272.908 138.847 272.706 138.209L271.753 138.512ZM272.991 142.313C273.2 142.939 273.411 143.558 273.622 144.169L274.567 143.843C274.357 143.235 274.148 142.619 273.939 141.995L272.991 142.313ZM274.295 146.082C274.52 146.711 274.747 147.332 274.974 147.942L275.911 147.593C275.685 146.987 275.46 146.37 275.236 145.744L274.295 146.082ZM275.687 149.812C275.933 150.444 276.181 151.064 276.431 151.672L277.356 151.292C277.109 150.69 276.863 150.075 276.618 149.448L275.687 149.812ZM277.201 153.496C277.476 154.127 277.752 154.742 278.031 155.341L278.938 154.92C278.663 154.329 278.39 153.721 278.118 153.097L277.201 153.496ZM278.889 157.12C279.202 157.742 279.517 158.343 279.835 158.922L280.711 158.44C280.4 157.873 280.09 157.283 279.783 156.671L278.889 157.12ZM280.834 160.646C281.198 161.241 281.566 161.807 281.939 162.343L282.76 161.771C282.399 161.253 282.041 160.704 281.687 160.125L280.834 160.646ZM283.168 163.969C283.61 164.507 284.061 165.002 284.52 165.453L285.221 164.738C284.789 164.316 284.363 163.847 283.94 163.333L283.168 163.969ZM286.101 166.793C286.69 167.217 287.294 167.568 287.916 167.839L288.316 166.923C287.766 166.683 287.223 166.369 286.684 165.982L286.101 166.793ZM289.934 168.423C290.286 168.474 290.641 168.5 291 168.5V167.5C290.689 167.5 290.382 167.478 290.078 167.433L289.934 168.423ZM291 168.5C291.359 168.5 291.713 168.482 292.064 168.446L291.962 167.451C291.646 167.484 291.325 167.5 291 167.5V168.5ZM294.117 168.024C294.779 167.818 295.422 167.547 296.049 167.217L295.582 166.332C295.006 166.636 294.419 166.883 293.82 167.07L294.117 168.024ZM297.812 166.102C298.355 165.701 298.884 165.254 299.402 164.765L298.715 164.038C298.224 164.502 297.725 164.923 297.217 165.298L297.812 166.102ZM300.815 163.297C301.252 162.8 301.681 162.272 302.102 161.717L301.306 161.112C300.898 161.65 300.484 162.159 300.064 162.636L300.815 163.297ZM303.291 160.047C303.661 159.497 304.024 158.925 304.383 158.333L303.527 157.815C303.176 158.395 302.821 158.954 302.461 159.49L303.291 160.047ZM305.394 156.588C305.719 156.003 306.04 155.402 306.357 154.786L305.468 154.328C305.155 154.935 304.84 155.527 304.52 156.102L305.394 156.588ZM307.253 152.99C307.543 152.39 307.83 151.779 308.114 151.157L307.204 150.741C306.923 151.357 306.639 151.962 306.353 152.555L307.253 152.99ZM308.936 149.313C309.201 148.704 309.464 148.086 309.725 147.46L308.802 147.075C308.543 147.697 308.282 148.31 308.019 148.914L308.936 149.313ZM310.492 145.588C310.74 144.972 310.986 144.35 311.231 143.721L310.3 143.358C310.056 143.983 309.811 144.603 309.564 145.215L310.492 145.588ZM311.958 141.834C312.194 141.213 312.429 140.587 312.663 139.956L311.726 139.608C311.492 140.236 311.258 140.86 311.023 141.479L311.958 141.834ZM313.361 138.062C313.589 137.436 313.817 136.807 314.045 136.175L313.104 135.837C312.877 136.467 312.649 137.095 312.421 137.719L313.361 138.062ZM314.724 134.278C314.948 133.65 315.172 133.019 315.396 132.386L314.454 132.052C314.23 132.684 314.006 133.314 313.782 133.942L314.724 134.278ZM316.067 130.49C316.29 129.859 316.513 129.227 316.736 128.595L315.793 128.262C315.57 128.894 315.347 129.526 315.124 130.157L316.067 130.49ZM317.406 126.702C317.63 126.07 317.855 125.439 318.08 124.809L317.139 124.472C316.913 125.103 316.688 125.735 316.464 126.368L317.406 126.702ZM318.759 122.921C318.987 122.289 319.216 121.659 319.446 121.032L318.507 120.688C318.276 121.317 318.047 121.948 317.818 122.581L318.759 122.921ZM320.141 119.152C320.376 118.522 320.612 117.895 320.849 117.272L319.915 116.916C319.676 117.542 319.439 118.171 319.204 118.802L320.141 119.152ZM321.57 115.404C321.815 114.777 322.061 114.154 322.31 113.537L321.382 113.164C321.132 113.784 320.884 114.41 320.638 115.04L321.57 115.404ZM323.066 111.686C323.325 111.063 323.586 110.447 323.85 109.837L322.931 109.44C322.666 110.055 322.404 110.675 322.143 111.302L323.066 111.686ZM324.654 108.012C324.932 107.395 325.212 106.786 325.495 106.187L324.591 105.76C324.305 106.365 324.022 106.979 323.742 107.601L324.654 108.012ZM326.361 104.401C326.664 103.793 326.97 103.196 327.28 102.61L326.396 102.143C326.082 102.736 325.772 103.34 325.466 103.955L326.361 104.401ZM328.23 100.872C328.565 100.281 328.903 99.7049 329.246 99.1438L328.393 98.6224C328.044 99.1937 327.699 99.7799 327.36 100.38L328.23 100.872ZM330.315 97.4671C330.687 96.909 331.064 96.3693 331.447 95.8493L330.641 95.2566C330.249 95.79 329.863 96.3425 329.483 96.9126L330.315 97.4671ZM332.673 94.2748C333.1 93.7574 333.535 93.2649 333.976 92.7987L333.25 92.1112C332.792 92.5949 332.343 93.1043 331.902 93.6376L332.673 94.2748ZM335.375 91.4321C335.876 90.9827 336.385 90.567 336.903 90.1869L336.312 89.3805C335.765 89.7816 335.23 90.2183 334.707 90.6881L335.375 91.4321ZM338.537 89.1259C339.106 88.8033 339.686 88.5224 340.278 88.2855L339.906 87.3571C339.27 87.6116 338.65 87.9123 338.044 88.256L338.537 89.1259ZM342.118 87.7014C342.74 87.5545 343.375 87.4542 344.025 87.4029L343.946 86.406C343.245 86.4613 342.559 86.5696 341.888 86.7282L342.118 87.7014ZM345.946 87.3938C346.271 87.4157 346.599 87.4494 346.932 87.4953L347.068 86.5047C346.713 86.4557 346.361 86.4196 346.013 86.3961L345.946 87.3938ZM346.932 87.4953C347.251 87.5394 347.569 87.5912 347.886 87.6505L348.07 86.6676C347.738 86.6053 347.404 86.551 347.068 86.5047L346.932 87.4953ZM349.767 88.0957C350.384 88.2723 350.995 88.4775 351.601 88.7102L351.96 87.7766C351.327 87.5338 350.688 87.3192 350.042 87.1343L349.767 88.0957ZM353.378 89.4773C353.957 89.7551 354.53 90.0578 355.099 90.3843L355.597 89.5172C355.008 89.1789 354.412 88.8646 353.811 88.5757L353.378 89.4773ZM356.755 91.4124C357.288 91.7675 357.816 92.1432 358.338 92.5387L358.942 91.7413C358.404 91.3343 357.86 90.947 357.31 90.5804L356.755 91.4124ZM359.866 93.7621C360.359 94.1784 360.847 94.612 361.331 95.0621L362.012 94.3301C361.517 93.8696 361.017 93.4253 360.512 92.9981L359.866 93.7621ZM362.731 96.4232C363.187 96.886 363.638 97.363 364.086 97.8536L364.825 97.1799C364.369 96.6801 363.908 96.1936 363.443 95.7212L362.731 96.4232ZM365.377 99.3221C365.797 99.8169 366.214 100.323 366.625 100.841L367.408 100.218C366.99 99.6927 366.567 99.178 366.139 98.6747L365.377 99.3221ZM367.829 102.4C368.218 102.919 368.603 103.448 368.985 103.986L369.801 103.408C369.414 102.863 369.024 102.327 368.629 101.8L367.829 102.4ZM370.109 105.614C370.471 106.153 370.829 106.699 371.184 107.253L372.026 106.713C371.668 106.154 371.305 105.601 370.938 105.056L370.109 105.614ZM372.233 108.928C372.573 109.485 372.909 110.047 373.242 110.616L374.105 110.11C373.769 109.537 373.429 108.969 373.086 108.407L372.233 108.928ZM374.224 112.329C374.544 112.9 374.86 113.475 375.173 114.056L376.053 113.581C375.738 112.996 375.419 112.415 375.096 111.84L374.224 112.329ZM376.096 115.801C376.398 116.383 376.697 116.969 376.992 117.559L377.886 117.112C377.589 116.518 377.288 115.927 376.984 115.34L376.096 115.801ZM377.862 119.331C378.148 119.923 378.43 120.518 378.708 121.115L379.614 120.692C379.334 120.091 379.05 119.492 378.763 118.896L377.862 119.331ZM379.531 122.91C379.801 123.51 380.068 124.112 380.331 124.715L381.248 124.315C380.983 123.709 380.715 123.103 380.443 122.499L379.531 122.91ZM381.111 126.531C381.367 127.138 381.62 127.745 381.868 128.353L382.794 127.974C382.544 127.363 382.29 126.752 382.032 126.142L381.111 126.531ZM382.608 130.188C382.851 130.801 383.09 131.413 383.325 132.024L384.259 131.665C384.022 131.05 383.782 130.435 383.537 129.82L382.608 130.188ZM384.028 133.877C384.259 134.495 384.485 135.111 384.708 135.726L385.648 135.385C385.424 134.768 385.197 134.148 384.965 133.527L384.028 133.877ZM385.375 137.594C385.594 138.217 385.809 138.839 386.02 139.457L386.966 139.134C386.755 138.513 386.538 137.889 386.318 137.262L385.375 137.594ZM386.651 141.334C386.859 141.965 387.064 142.591 387.263 143.213L388.215 142.908C388.015 142.283 387.81 141.653 387.6 141.02L386.651 141.334ZM387.857 145.094C388.056 145.733 388.249 146.365 388.438 146.992L389.396 146.703C389.206 146.074 389.012 145.439 388.812 144.797L387.857 145.094ZM388.995 148.872C389.183 149.519 389.366 150.157 389.543 150.786L390.505 150.516C390.328 149.883 390.144 149.242 389.955 148.593L388.995 148.872ZM390.068 152.691C390.243 153.334 390.41 153.966 390.572 154.586L391.54 154.334C391.377 153.711 391.209 153.076 391.034 152.43L390.068 152.691ZM391.064 156.518C391.228 157.175 391.384 157.816 391.531 158.44L392.504 158.209C392.356 157.582 392.199 156.937 392.034 156.276L391.064 156.518ZM391.973 160.353C392.121 161.017 392.259 161.656 392.387 162.268L393.366 162.064C393.237 161.447 393.098 160.803 392.949 160.135L391.973 160.353ZM392.775 164.21C392.906 164.902 393.021 165.547 393.119 166.143L394.106 165.981C394.006 165.376 393.89 164.722 393.757 164.023L392.775 164.21ZM393.404 168.103C393.446 168.447 393.478 168.761 393.502 169.042L394.498 168.958C394.474 168.663 394.44 168.337 394.397 167.983L393.404 168.103Z" fill="black"/>
</svg>
